<?xml version="1.0" encoding="UTF-8"?>
<svg xmlns="http://www.w3.org/2000/svg" xmlns:xlink="http://www.w3.org/1999/xlink" width="16pt" height="16pt" viewBox="0 0 16 16" version="1.1">
<g id="surface1">
<path style=" stroke:none;fill-rule:nonzero;fill:rgb(0%,0%,0%);fill-opacity:1;" d="M 9.230469 10.011719 C 10.175781 9.617188 10.925781 9.074219 11.472656 8.390625 C 12.015625 7.699219 12.289062 6.953125 12.289062 6.144531 C 12.289062 5.332031 12.015625 4.589844 11.472656 3.898438 C 10.925781 3.214844 10.175781 2.671875 9.230469 2.277344 C 8.285156 1.875 7.257812 1.675781 6.144531 1.675781 C 5.03125 1.675781 4.003906 1.875 3.058594 2.277344 C 2.113281 2.671875 1.367188 3.214844 0.820312 3.898438 C 0.273438 4.589844 0 5.332031 0 6.144531 C 0 6.835938 0.207031 7.488281 0.621094 8.097656 C 1.03125 8.710938 1.601562 9.226562 2.320312 9.648438 C 2.261719 9.78125 2.203125 9.910156 2.144531 10.027344 C 2.082031 10.144531 2.007812 10.257812 1.925781 10.363281 C 1.839844 10.472656 1.777344 10.558594 1.726562 10.617188 C 1.679688 10.679688 1.601562 10.765625 1.5 10.871094 C 1.394531 10.984375 1.332031 11.054688 1.296875 11.09375 C 1.296875 11.085938 1.289062 11.101562 1.265625 11.132812 C 1.238281 11.164062 1.230469 11.179688 1.226562 11.175781 C 1.222656 11.175781 1.210938 11.1875 1.191406 11.21875 C 1.171875 11.25 1.160156 11.265625 1.160156 11.265625 L 1.140625 11.3125 C 1.132812 11.328125 1.125 11.34375 1.121094 11.363281 C 1.117188 11.382812 1.113281 11.398438 1.113281 11.417969 C 1.113281 11.441406 1.117188 11.457031 1.125 11.476562 C 1.136719 11.550781 1.171875 11.613281 1.226562 11.660156 C 1.28125 11.707031 1.339844 11.730469 1.40625 11.730469 L 1.429688 11.730469 C 1.722656 11.691406 1.96875 11.640625 2.183594 11.589844 C 3.078125 11.359375 3.886719 10.984375 4.605469 10.472656 C 5.132812 10.5625 5.640625 10.613281 6.144531 10.613281 C 7.253906 10.613281 8.285156 10.410156 9.230469 10.011719 Z M 4.347656 9.285156 L 3.960938 9.554688 C 3.800781 9.667969 3.621094 9.777344 3.421875 9.898438 L 3.726562 9.164062 L 2.878906 8.675781 C 2.320312 8.347656 1.886719 7.964844 1.578125 7.523438 C 1.269531 7.078125 1.113281 6.621094 1.113281 6.144531 C 1.113281 5.550781 1.34375 4.996094 1.804688 4.476562 C 2.257812 3.960938 2.875 3.550781 3.648438 3.246094 C 4.421875 2.945312 5.253906 2.792969 6.144531 2.792969 C 7.035156 2.792969 7.867188 2.945312 8.640625 3.246094 C 9.414062 3.550781 10.03125 3.960938 10.484375 4.476562 C 10.945312 4.996094 11.171875 5.550781 11.171875 6.144531 C 11.171875 6.738281 10.945312 7.292969 10.484375 7.8125 C 10.03125 8.328125 9.414062 8.738281 8.640625 9.042969 C 7.867188 9.34375 7.035156 9.492188 6.144531 9.492188 C 5.707031 9.492188 5.265625 9.457031 4.808594 9.371094 Z M 4.347656 9.285156 "/>
<path style=" stroke:none;fill-rule:nonzero;fill:rgb(0%,0%,0%);fill-opacity:1;" d="M 15.019531 10.339844 C 15.433594 9.730469 15.636719 9.074219 15.636719 8.378906 C 15.636719 7.660156 15.421875 6.992188 14.988281 6.371094 C 14.546875 5.746094 13.953125 5.230469 13.207031 4.816406 C 13.339844 5.25 13.402344 5.695312 13.402344 6.144531 C 13.402344 6.921875 13.214844 7.660156 12.824219 8.363281 C 12.429688 9.058594 11.875 9.675781 11.144531 10.210938 C 10.46875 10.699219 9.703125 11.078125 8.839844 11.335938 C 7.980469 11.601562 7.078125 11.730469 6.144531 11.730469 C 5.972656 11.730469 5.714844 11.71875 5.378906 11.695312 C 6.546875 12.460938 7.917969 12.847656 9.492188 12.847656 C 9.996094 12.847656 10.507812 12.800781 11.03125 12.707031 C 11.753906 13.21875 12.5625 13.589844 13.457031 13.824219 C 13.667969 13.875 13.917969 13.925781 14.207031 13.964844 C 14.28125 13.972656 14.34375 13.949219 14.402344 13.902344 C 14.460938 13.859375 14.496094 13.792969 14.515625 13.710938 C 14.511719 13.679688 14.515625 13.65625 14.523438 13.65625 C 14.535156 13.652344 14.53125 13.632812 14.519531 13.597656 C 14.507812 13.5625 14.503906 13.546875 14.503906 13.546875 L 14.480469 13.503906 C 14.476562 13.492188 14.464844 13.476562 14.449219 13.453125 C 14.4375 13.433594 14.421875 13.421875 14.414062 13.410156 C 14.40625 13.402344 14.390625 13.386719 14.375 13.367188 C 14.359375 13.347656 14.347656 13.335938 14.339844 13.328125 C 14.308594 13.292969 14.242188 13.21875 14.136719 13.109375 C 14.035156 13 13.957031 12.914062 13.914062 12.851562 C 13.867188 12.792969 13.800781 12.703125 13.714844 12.597656 C 13.632812 12.488281 13.558594 12.378906 13.5 12.261719 C 13.4375 12.148438 13.375 12.019531 13.320312 11.878906 C 14.042969 11.460938 14.605469 10.949219 15.019531 10.339844 Z M 15.019531 10.339844 "/>
</g>
</svg>
