<?xml version="1.0" encoding="UTF-8"?>
<svg xmlns="http://www.w3.org/2000/svg" xmlns:xlink="http://www.w3.org/1999/xlink" width="14pt" height="14pt" viewBox="0 0 14 14" version="1.1">
<g id="surface1">
<path style=" stroke:none;fill-rule:nonzero;fill:rgb(0%,0%,0%);fill-opacity:1;" d="M 6.566406 0 C 4.828125 0.00390625 3.15625 0.695312 1.929688 1.9375 C 0.695312 3.171875 0.00390625 4.847656 0 6.597656 L 0 12.886719 C 0 12.964844 0.03125 13.046875 0.0898438 13.105469 C 0.148438 13.164062 0.226562 13.199219 0.3125 13.199219 L 6.566406 13.199219 C 8.308594 13.199219 9.980469 12.503906 11.214844 11.265625 C 12.445312 10.027344 13.140625 8.351562 13.140625 6.597656 C 13.140625 4.847656 12.445312 3.171875 11.214844 1.9375 C 9.980469 0.695312 8.308594 0 6.566406 0 Z M 6.566406 12.574219 L 0.625 12.574219 L 0.625 6.597656 C 0.625 5.417969 0.976562 4.265625 1.625 3.28125 C 2.277344 2.300781 3.207031 1.535156 4.292969 1.085938 C 5.378906 0.628906 6.578125 0.511719 7.730469 0.742188 C 8.882812 0.976562 9.945312 1.539062 10.769531 2.378906 C 11.597656 3.210938 12.167969 4.273438 12.394531 5.433594 C 12.628906 6.59375 12.503906 7.796875 12.058594 8.886719 C 11.609375 9.976562 10.847656 10.90625 9.871094 11.566406 C 8.894531 12.222656 7.742188 12.574219 6.566406 12.574219 Z M 6.566406 12.574219 "/>
<path style=" stroke:none;fill-rule:nonzero;fill:rgb(0%,0%,0%);fill-opacity:1;" d="M 6.566406 7.226562 C 6.914062 7.226562 7.191406 6.945312 7.191406 6.597656 C 7.191406 6.253906 6.914062 5.96875 6.566406 5.96875 C 6.21875 5.96875 5.941406 6.253906 5.941406 6.597656 C 5.941406 6.945312 6.21875 7.226562 6.566406 7.226562 Z M 6.566406 7.226562 "/>
<path style=" stroke:none;fill-rule:nonzero;fill:rgb(0%,0%,0%);fill-opacity:1;" d="M 9.070312 7.226562 C 9.421875 7.226562 9.699219 6.945312 9.699219 6.597656 C 9.699219 6.253906 9.421875 5.96875 9.070312 5.96875 C 8.726562 5.96875 8.445312 6.253906 8.445312 6.597656 C 8.445312 6.945312 8.726562 7.226562 9.070312 7.226562 Z M 9.070312 7.226562 "/>
<path style=" stroke:none;fill-rule:nonzero;fill:rgb(0%,0%,0%);fill-opacity:1;" d="M 4.066406 7.226562 C 4.410156 7.226562 4.695312 6.945312 4.695312 6.597656 C 4.695312 6.253906 4.410156 5.96875 4.066406 5.96875 C 3.722656 5.96875 3.441406 6.253906 3.441406 6.597656 C 3.441406 6.945312 3.722656 7.226562 4.066406 7.226562 Z M 4.066406 7.226562 "/>
</g>
</svg>
