<svg width="17" height="16" viewBox="0 0 17 16" fill="none" xmlns="http://www.w3.org/2000/svg">
<path d="M8.20998 8.79995C8.6634 8.79995 9.03098 8.44178 9.03098 7.99995C9.03098 7.55812 8.6634 7.19995 8.20998 7.19995C7.75655 7.19995 7.38898 7.55812 7.38898 7.99995C7.38898 8.44178 7.75655 8.79995 8.20998 8.79995Z" fill="black"/>
<path d="M0.589504 14.9925L0.589476 14.9925C0.545524 15.0353 0.517117 15.0883 0.505747 15.144C0.494396 15.1996 0.500093 15.2574 0.52271 15.3106C0.545391 15.3639 0.584713 15.4117 0.637729 15.4462C0.690876 15.4808 0.754683 15.5 0.821002 15.5H8.21C10.2589 15.5 12.2214 14.7068 13.6664 13.2988C15.1109 11.8912 15.92 9.98488 15.92 8C15.92 6.01512 15.1109 4.10883 13.6664 2.70125C12.2214 1.29325 10.259 0.50001 8.21004 0.5L0.589504 14.9925ZM0.589504 14.9925L2.20182 13.4214L2.53415 13.0975M0.589504 14.9925L2.53415 13.0975M2.53415 13.0975L2.23598 12.742M2.53415 13.0975L2.23598 12.742M2.23598 12.742C1.31394 11.6425 0.732102 10.3122 0.556349 8.90574C0.380602 7.49936 0.617875 6.07282 1.24144 4.79146C1.86506 3.50998 2.85001 2.42531 4.08355 1.66493C5.31719 0.904496 6.74813 0.500125 8.21 0.5L2.23598 12.742Z" stroke="black"/>
<path d="M4.92598 8.79995C5.37941 8.79995 5.74698 8.44178 5.74698 7.99995C5.74698 7.55812 5.37941 7.19995 4.92598 7.19995C4.47255 7.19995 4.10498 7.55812 4.10498 7.99995C4.10498 8.44178 4.47255 8.79995 4.92598 8.79995Z" fill="black"/>
<path d="M11.494 8.79995C11.9475 8.79995 12.315 8.44178 12.315 7.99995C12.315 7.55812 11.9475 7.19995 11.494 7.19995C11.0406 7.19995 10.673 7.55812 10.673 7.99995C10.673 8.44178 11.0406 8.79995 11.494 8.79995Z" fill="black"/>
</svg>
