<svg width="22" height="22" viewBox="0 0 22 22" fill="none" xmlns="http://www.w3.org/2000/svg">
<path d="M11.5262 10.9426C11.9368 10.9446 12.3432 10.859 12.7192 10.6913C13.0952 10.5236 13.4323 10.2775 13.7088 9.96906C13.9853 9.66057 14.1949 9.29654 14.3242 8.90051C14.4535 8.50448 14.4995 8.08529 14.4592 7.67005C14.3683 6.92106 14.0085 6.23253 13.4488 5.73643C12.8892 5.24033 12.1691 4.97157 11.4265 4.98166H9.76637C9.29964 4.98166 8.85202 5.17007 8.52199 5.50544C8.19196 5.8408 8.00656 6.29566 8.00656 6.76995V9.75043H7.41995C7.26437 9.75043 7.11517 9.81323 7.00516 9.92502C6.89515 10.0368 6.83334 10.1884 6.83334 10.3465C6.83334 10.5046 6.89515 10.6562 7.00516 10.768C7.11517 10.8798 7.26437 10.9426 7.41995 10.9426H8.00656V12.1348H7.41995C7.26437 12.1348 7.11517 12.1976 7.00516 12.3094C6.89515 12.4212 6.83334 12.5728 6.83334 12.7309C6.83334 12.889 6.89515 13.0406 7.00516 13.1524C7.11517 13.2642 7.26437 13.327 7.41995 13.327H8.00656V15.1153C8.00656 15.2734 8.06836 15.425 8.17837 15.5368C8.28838 15.6486 8.43758 15.7114 8.59316 15.7114C8.74874 15.7114 8.89794 15.6486 9.00795 15.5368C9.11796 15.425 9.17977 15.2734 9.17977 15.1153V13.327H12.1128C12.2684 13.327 12.4176 13.2642 12.5276 13.1524C12.6376 13.0406 12.6994 12.889 12.6994 12.7309C12.6994 12.5728 12.6376 12.4212 12.5276 12.3094C12.4176 12.1976 12.2684 12.1348 12.1128 12.1348H9.17977V10.9426H11.5262ZM9.17977 6.76995C9.17977 6.61185 9.24157 6.46023 9.35158 6.34844C9.46159 6.23665 9.6108 6.17385 9.76637 6.17385H11.4265C11.8767 6.16368 12.315 6.32203 12.6578 6.61878C13.0007 6.91553 13.2242 7.32998 13.286 7.78331C13.308 8.03162 13.2787 8.28186 13.1999 8.51797C13.1211 8.75408 12.9946 8.97084 12.8285 9.15433C12.6645 9.34067 12.4638 9.48999 12.2395 9.59267C12.0152 9.69534 11.7722 9.74908 11.5262 9.75043H9.17977V6.76995Z" fill="#171717"/>
<path d="M11 21C9.02219 21 7.08879 20.4135 5.4443 19.3147C3.79981 18.2159 2.51809 16.6541 1.76121 14.8268C1.00433 12.9996 0.8063 10.9889 1.19215 9.0491C1.578 7.10929 2.53041 5.32746 3.92894 3.92894C5.32746 2.53041 7.10929 1.578 9.0491 1.19215C10.9889 0.8063 12.9996 1.00433 14.8268 1.76121C16.6541 2.51809 18.2159 3.79981 19.3147 5.4443C20.4135 7.08879 21 9.02219 21 11C21 13.6522 19.9464 16.1957 18.0711 18.0711C16.1957 19.9464 13.6522 21 11 21ZM11 2C9.21997 2 7.47991 2.52785 5.99987 3.51678C4.51983 4.50571 3.36628 5.91132 2.68509 7.55585C2.0039 9.20039 1.82567 11.01 2.17294 12.7558C2.5202 14.5016 3.37737 16.1053 4.63604 17.364C5.89471 18.6226 7.49836 19.4798 9.24419 19.8271C10.99 20.1743 12.7996 19.9961 14.4442 19.3149C16.0887 18.6337 17.4943 17.4802 18.4832 16.0001C19.4722 14.5201 20 12.78 20 11C20 8.61306 19.0518 6.32387 17.364 4.63604C15.6761 2.94822 13.387 2 11 2Z" fill="#171717" stroke="#171717"/>
</svg>
