<svg width="150" height="66" viewBox="0 0 150 66" fill="none" xmlns="http://www.w3.org/2000/svg">
<path d="M0 31.9052C0 14.4188 14.4139 0.394666 31.8974 0.71058C63.7694 1.28648 88.5949 1.25467 118.096 0.715324C135.579 0.395691 150 14.4172 150 31.9033C150 49.0775 136.078 63 118.903 63H31.0948C13.9216 63 0 49.0784 0 31.9052Z" fill="#FFCD2C"/>
<path d="M20.9901 23.856L18.4001 28H16.9301L19.7301 23.632C19.3754 23.5107 19.0394 23.3427 18.7221 23.128C18.4141 22.9133 18.1621 22.6193 17.9661 22.246C17.7701 21.8727 17.6721 21.392 17.6721 20.804C17.6721 19.8987 17.9847 19.208 18.6101 18.732C19.2354 18.2467 20.1687 18.004 21.4101 18.004H24.2101V28H22.9501V23.856H20.9901ZM21.4381 19.082C20.6447 19.082 20.0334 19.222 19.6041 19.502C19.1841 19.7727 18.9741 20.2253 18.9741 20.86C18.9741 21.476 19.1794 21.952 19.5901 22.288C20.0007 22.624 20.6354 22.792 21.4941 22.792H22.9501V19.082H21.4381ZM35.3031 22.386C35.3031 22.8527 35.1631 23.2167 34.8831 23.478C34.6031 23.7393 34.2438 23.9167 33.8051 24.01V24.066C34.2718 24.1313 34.6778 24.2993 35.0231 24.57C35.3684 24.8313 35.5411 25.242 35.5411 25.802C35.5411 26.4367 35.3031 26.964 34.8271 27.384C34.3604 27.7947 33.5858 28 32.5031 28H29.2691V20.496H32.4891C33.0211 20.496 33.4971 20.5567 33.9171 20.678C34.3464 20.79 34.6824 20.986 34.9251 21.266C35.1771 21.5367 35.3031 21.91 35.3031 22.386ZM34.0571 22.54C34.0571 22.1853 33.9264 21.9287 33.6651 21.77C33.4131 21.602 32.9978 21.518 32.4191 21.518H30.5011V23.576H32.1951C33.4364 23.576 34.0571 23.2307 34.0571 22.54ZM34.2671 25.802C34.2671 25.3727 34.1038 25.0647 33.7771 24.878C33.4504 24.6913 32.9698 24.598 32.3351 24.598H30.5011V27.006H32.3631C32.9791 27.006 33.4504 26.9173 33.7771 26.74C34.1038 26.5533 34.2671 26.2407 34.2671 25.802ZM43.0475 28H41.8015V21.518H39.5895C39.4682 23.0953 39.3002 24.3693 39.0855 25.34C38.8708 26.3013 38.5862 27.0013 38.2315 27.44C37.8768 27.8787 37.4288 28.098 36.8875 28.098C36.7662 28.098 36.6448 28.0887 36.5235 28.07C36.4115 28.0607 36.3182 28.0373 36.2435 28V27.076C36.2995 27.0947 36.3602 27.1087 36.4255 27.118C36.4908 27.1273 36.5562 27.132 36.6215 27.132C37.1255 27.132 37.5268 26.5953 37.8255 25.522C38.1335 24.4487 38.3668 22.7733 38.5255 20.496H43.0475V28ZM48.2713 20.37C49.1859 20.37 49.8626 20.5707 50.3013 20.972C50.7399 21.3733 50.9593 22.0127 50.9593 22.89V28H50.0633L49.8253 26.936H49.7693C49.4426 27.3467 49.0973 27.65 48.7333 27.846C48.3786 28.042 47.8839 28.14 47.2493 28.14C46.5679 28.14 46.0033 27.9627 45.5553 27.608C45.1073 27.244 44.8833 26.6793 44.8833 25.914C44.8833 25.1673 45.1773 24.5933 45.7653 24.192C46.3533 23.7813 47.2586 23.5573 48.4813 23.52L49.7553 23.478V23.03C49.7553 22.4047 49.6199 21.9707 49.3493 21.728C49.0786 21.4853 48.6959 21.364 48.2013 21.364C47.8093 21.364 47.4359 21.4247 47.0813 21.546C46.7266 21.658 46.3953 21.7887 46.0873 21.938L45.7093 21.014C46.0359 20.8367 46.4233 20.6873 46.8713 20.566C47.3193 20.4353 47.7859 20.37 48.2713 20.37ZM48.6353 24.374C47.7019 24.4113 47.0533 24.5607 46.6893 24.822C46.3346 25.0833 46.1573 25.452 46.1573 25.928C46.1573 26.348 46.2833 26.656 46.5353 26.852C46.7966 27.048 47.1279 27.146 47.5293 27.146C48.1639 27.146 48.6913 26.9733 49.1113 26.628C49.5313 26.2733 49.7413 25.732 49.7413 25.004V24.332L48.6353 24.374ZM58.8489 20.496V26.964H59.9409V30.604H58.7509V28H53.5289V30.604H52.3529V26.964H52.9549C53.5989 26.0773 54.0796 25.0693 54.3969 23.94C54.7236 22.8013 54.8916 21.6533 54.9009 20.496H58.8489ZM55.9929 21.462C55.9556 22.0967 55.8576 22.7547 55.6989 23.436C55.5402 24.108 55.3349 24.752 55.0829 25.368C54.8402 25.984 54.5556 26.516 54.2289 26.964H57.6589V21.462H55.9929ZM64.3097 20.356C64.9537 20.356 65.5043 20.496 65.9617 20.776C66.4283 21.056 66.783 21.4527 67.0257 21.966C67.2777 22.47 67.4037 23.0627 67.4037 23.744V24.486H62.2657C62.2843 25.3353 62.499 25.984 62.9097 26.432C63.3297 26.8707 63.913 27.09 64.6597 27.09C65.1357 27.09 65.5557 27.048 65.9197 26.964C66.293 26.8707 66.6757 26.74 67.0677 26.572V27.65C66.685 27.818 66.307 27.9393 65.9337 28.014C65.5603 28.098 65.117 28.14 64.6037 28.14C63.8943 28.14 63.2643 27.9953 62.7137 27.706C62.1723 27.4167 61.7477 26.9873 61.4397 26.418C61.141 25.8393 60.9917 25.1347 60.9917 24.304C60.9917 23.4827 61.127 22.778 61.3977 22.19C61.6777 21.602 62.065 21.1493 62.5597 20.832C63.0637 20.5147 63.647 20.356 64.3097 20.356ZM64.2957 21.364C63.7077 21.364 63.241 21.5553 62.8957 21.938C62.5597 22.3113 62.359 22.834 62.2937 23.506H66.1157C66.1063 22.8713 65.957 22.358 65.6677 21.966C65.3783 21.5647 64.921 21.364 64.2957 21.364ZM75.026 28H73.78V21.518H71.568C71.4467 23.0953 71.2787 24.3693 71.064 25.34C70.8494 26.3013 70.5647 27.0013 70.21 27.44C69.8554 27.8787 69.4074 28.098 68.866 28.098C68.7447 28.098 68.6234 28.0887 68.502 28.07C68.39 28.0607 68.2967 28.0373 68.222 28V27.076C68.278 27.0947 68.3387 27.1087 68.404 27.118C68.4694 27.1273 68.5347 27.132 68.6 27.132C69.104 27.132 69.5054 26.5953 69.804 25.522C70.112 24.4487 70.3454 22.7733 70.504 20.496H75.026V28ZM80.3058 20.356C80.9498 20.356 81.5004 20.496 81.9578 20.776C82.4244 21.056 82.7791 21.4527 83.0218 21.966C83.2738 22.47 83.3998 23.0627 83.3998 23.744V24.486H78.2618C78.2804 25.3353 78.4951 25.984 78.9058 26.432C79.3258 26.8707 79.9091 27.09 80.6558 27.09C81.1318 27.09 81.5518 27.048 81.9158 26.964C82.2891 26.8707 82.6718 26.74 83.0638 26.572V27.65C82.6811 27.818 82.3031 27.9393 81.9298 28.014C81.5564 28.098 81.1131 28.14 80.5998 28.14C79.8904 28.14 79.2604 27.9953 78.7098 27.706C78.1684 27.4167 77.7438 26.9873 77.4358 26.418C77.1371 25.8393 76.9878 25.1347 76.9878 24.304C76.9878 23.4827 77.1231 22.778 77.3938 22.19C77.6738 21.602 78.0611 21.1493 78.5558 20.832C79.0598 20.5147 79.6431 20.356 80.3058 20.356ZM80.2918 21.364C79.7038 21.364 79.2371 21.5553 78.8918 21.938C78.5558 22.3113 78.3551 22.834 78.2898 23.506H82.1118C82.1024 22.8713 81.9531 22.358 81.6638 21.966C81.3744 21.5647 80.9171 21.364 80.2918 21.364ZM92.7161 30.604H91.5121V28H85.3101V20.496H86.5421V26.964H90.4201V20.496H91.6521V26.978H92.7161V30.604ZM101.249 20.496V21.532H97.9034V28H96.6714V20.496H101.249ZM106.298 20.356C107.222 20.356 107.964 20.678 108.524 21.322C109.093 21.966 109.378 22.9367 109.378 24.234C109.378 25.5127 109.093 26.4833 108.524 27.146C107.964 27.8087 107.217 28.14 106.284 28.14C105.705 28.14 105.225 28.0327 104.842 27.818C104.469 27.594 104.175 27.3373 103.96 27.048H103.876C103.895 27.2067 103.913 27.4073 103.932 27.65C103.951 27.8927 103.96 28.1027 103.96 28.28V31.36H102.728V20.496H103.736L103.904 21.518H103.96C104.184 21.1913 104.478 20.916 104.842 20.692C105.206 20.468 105.691 20.356 106.298 20.356ZM106.074 21.392C105.309 21.392 104.767 21.6067 104.45 22.036C104.142 22.4653 103.979 23.1187 103.96 23.996V24.234C103.96 25.158 104.109 25.872 104.408 26.376C104.716 26.8707 105.281 27.118 106.102 27.118C106.559 27.118 106.933 26.992 107.222 26.74C107.521 26.488 107.74 26.1473 107.88 25.718C108.029 25.2793 108.104 24.78 108.104 24.22C108.104 23.3613 107.936 22.6753 107.6 22.162C107.273 21.6487 106.765 21.392 106.074 21.392ZM110.029 20.496H111.345L112.969 24.766C113.109 25.1393 113.235 25.4987 113.347 25.844C113.459 26.18 113.543 26.502 113.599 26.81H113.655C113.711 26.5767 113.799 26.2733 113.921 25.9C114.042 25.5173 114.168 25.1347 114.299 24.752L115.825 20.496H117.155L113.921 29.036C113.659 29.7453 113.319 30.31 112.899 30.73C112.488 31.15 111.919 31.36 111.191 31.36C110.967 31.36 110.771 31.346 110.603 31.318C110.435 31.2993 110.29 31.276 110.169 31.248V30.268C110.271 30.2867 110.393 30.3053 110.533 30.324C110.682 30.3427 110.836 30.352 110.995 30.352C111.424 30.352 111.769 30.2307 112.031 29.988C112.301 29.7453 112.511 29.4233 112.661 29.022L113.053 28.028L110.029 20.496ZM120.315 20.356C121.174 20.356 121.855 20.5287 122.359 20.874C122.873 21.21 123.129 21.6953 123.129 22.33C123.129 22.7873 123.003 23.1513 122.751 23.422C122.499 23.6833 122.154 23.8747 121.715 23.996V24.052C122.014 24.136 122.289 24.2527 122.541 24.402C122.793 24.5513 122.994 24.7473 123.143 24.99C123.302 25.2327 123.381 25.5453 123.381 25.928C123.381 26.5533 123.12 27.0807 122.597 27.51C122.084 27.93 121.277 28.14 120.175 28.14C119.634 28.14 119.144 28.0933 118.705 28C118.267 27.916 117.903 27.7993 117.613 27.65V26.544C117.931 26.6933 118.304 26.8287 118.733 26.95C119.172 27.0713 119.648 27.132 120.161 27.132C120.721 27.132 121.193 27.0387 121.575 26.852C121.967 26.656 122.163 26.3247 122.163 25.858C122.163 25.018 121.449 24.598 120.021 24.598H119.013V23.59H119.825C120.469 23.59 120.983 23.506 121.365 23.338C121.757 23.1607 121.953 22.862 121.953 22.442C121.953 22.0873 121.804 21.8213 121.505 21.644C121.216 21.4667 120.796 21.378 120.245 21.378C119.835 21.378 119.471 21.42 119.153 21.504C118.845 21.5787 118.505 21.6953 118.131 21.854L117.697 20.874C118.481 20.5287 119.354 20.356 120.315 20.356ZM128.047 20.37C128.961 20.37 129.638 20.5707 130.077 20.972C130.515 21.3733 130.735 22.0127 130.735 22.89V28H129.839L129.601 26.936H129.545C129.218 27.3467 128.873 27.65 128.509 27.846C128.154 28.042 127.659 28.14 127.025 28.14C126.343 28.14 125.779 27.9627 125.331 27.608C124.883 27.244 124.659 26.6793 124.659 25.914C124.659 25.1673 124.953 24.5933 125.541 24.192C126.129 23.7813 127.034 23.5573 128.257 23.52L129.531 23.478V23.03C129.531 22.4047 129.395 21.9707 129.125 21.728C128.854 21.4853 128.471 21.364 127.977 21.364C127.585 21.364 127.211 21.4247 126.857 21.546C126.502 21.658 126.171 21.7887 125.863 21.938L125.485 21.014C125.811 20.8367 126.199 20.6873 126.647 20.566C127.095 20.4353 127.561 20.37 128.047 20.37ZM128.411 24.374C127.477 24.4113 126.829 24.5607 126.465 24.822C126.11 25.0833 125.933 25.452 125.933 25.928C125.933 26.348 126.059 26.656 126.311 26.852C126.572 27.048 126.903 27.146 127.305 27.146C127.939 27.146 128.467 26.9733 128.887 26.628C129.307 26.2733 129.517 25.732 129.517 25.004V24.332L128.411 24.374ZM48.9076 40.342C48.9076 41.0233 48.6929 41.5647 48.2636 41.966C47.8343 42.358 47.2603 42.61 46.5416 42.722V42.778C47.3816 42.89 48.0209 43.1513 48.4596 43.562C48.8983 43.9727 49.1176 44.5093 49.1176 45.172C49.1176 46.0493 48.7816 46.7633 48.1096 47.314C47.4376 47.8647 46.4296 48.14 45.0856 48.14C44.5443 48.14 44.0263 48.098 43.5316 48.014C43.0463 47.9393 42.5936 47.7993 42.1736 47.594V46.446C42.6123 46.6513 43.0883 46.8147 43.6016 46.936C44.1243 47.048 44.6143 47.104 45.0716 47.104C45.9676 47.104 46.6443 46.936 47.1016 46.6C47.5683 46.264 47.8016 45.788 47.8016 45.172C47.8016 44.5373 47.5309 44.0753 46.9896 43.786C46.4483 43.4967 45.6923 43.352 44.7216 43.352H43.2936V42.302H44.6516C45.6409 42.302 46.3783 42.1387 46.8636 41.812C47.3583 41.476 47.6056 41.028 47.6056 40.468C47.6056 39.964 47.4189 39.5767 47.0456 39.306C46.6723 39.0353 46.1869 38.9 45.5896 38.9C44.9643 38.9 44.4416 38.9793 44.0216 39.138C43.6109 39.2967 43.2096 39.502 42.8176 39.754L42.2156 38.9C42.6076 38.6107 43.0883 38.368 43.6576 38.172C44.2363 37.9667 44.8849 37.864 45.6036 37.864C46.6863 37.864 47.5076 38.0973 48.0676 38.564C48.6276 39.0307 48.9076 39.6233 48.9076 40.342ZM57.5021 48L56.2981 44.906H52.3361L51.1461 48H49.8721L53.7781 37.962H54.9121L58.8041 48H57.5021ZM54.8001 40.762C54.7721 40.6873 54.7254 40.552 54.6601 40.356C54.5947 40.16 54.5294 39.9593 54.4641 39.754C54.4081 39.5393 54.3614 39.376 54.3241 39.264C54.2587 39.5533 54.1841 39.838 54.1001 40.118C54.0161 40.3887 53.9461 40.6033 53.8901 40.762L52.7561 43.786H55.9201L54.8001 40.762ZM67.4655 48H65.9535L61.4315 42.932V48H60.1715V38.004H61.4315V42.848L65.8415 38.004H67.2695L62.9295 42.862L67.4655 48ZM75.0978 48L73.8938 44.906H69.9318L68.7418 48H67.4678L71.3738 37.962H72.5078L76.3998 48H75.0978ZM72.3958 40.762C72.3678 40.6873 72.3211 40.552 72.2558 40.356C72.1904 40.16 72.1251 39.9593 72.0598 39.754C72.0038 39.5393 71.9571 39.376 71.9198 39.264C71.8544 39.5533 71.7798 39.838 71.6958 40.118C71.6118 40.3887 71.5418 40.6033 71.4858 40.762L70.3518 43.786H73.5158L72.3958 40.762ZM83.6752 40.342C83.6752 41.0233 83.4605 41.5647 83.0312 41.966C82.6018 42.358 82.0278 42.61 81.3092 42.722V42.778C82.1492 42.89 82.7885 43.1513 83.2272 43.562C83.6658 43.9727 83.8852 44.5093 83.8852 45.172C83.8852 46.0493 83.5492 46.7633 82.8772 47.314C82.2052 47.8647 81.1972 48.14 79.8532 48.14C79.3118 48.14 78.7938 48.098 78.2992 48.014C77.8138 47.9393 77.3612 47.7993 76.9412 47.594V46.446C77.3798 46.6513 77.8558 46.8147 78.3692 46.936C78.8918 47.048 79.3818 47.104 79.8392 47.104C80.7352 47.104 81.4118 46.936 81.8692 46.6C82.3358 46.264 82.5692 45.788 82.5692 45.172C82.5692 44.5373 82.2985 44.0753 81.7572 43.786C81.2158 43.4967 80.4598 43.352 79.4892 43.352H78.0612V42.302H79.4192C80.4085 42.302 81.1458 42.1387 81.6312 41.812C82.1258 41.476 82.3732 41.028 82.3732 40.468C82.3732 39.964 82.1865 39.5767 81.8132 39.306C81.4398 39.0353 80.9545 38.9 80.3572 38.9C79.7318 38.9 79.2092 38.9793 78.7892 39.138C78.3785 39.2967 77.9772 39.502 77.5852 39.754L76.9832 38.9C77.3752 38.6107 77.8558 38.368 78.4252 38.172C79.0038 37.9667 79.6525 37.864 80.3712 37.864C81.4538 37.864 82.2752 38.0973 82.8352 38.564C83.3952 39.0307 83.6752 39.6233 83.6752 40.342ZM92.2696 48L91.0656 44.906H87.1036L85.9136 48H84.6396L88.5456 37.962H89.6796L93.5716 48H92.2696ZM89.5676 40.762C89.5396 40.6873 89.493 40.552 89.4276 40.356C89.3623 40.16 89.297 39.9593 89.2316 39.754C89.1756 39.5393 89.129 39.376 89.0916 39.264C89.0263 39.5533 88.9516 39.838 88.8676 40.118C88.7836 40.3887 88.7136 40.6033 88.6576 40.762L87.5236 43.786H90.6876L89.5676 40.762ZM97.1187 48H95.8587V39.11H92.7367V38.004H100.227V39.11H97.1187V48ZM101.734 48V38.004H102.994V42.232H104.87C105.803 42.232 106.545 42.358 107.096 42.61C107.647 42.862 108.043 43.2027 108.286 43.632C108.529 44.0613 108.65 44.542 108.65 45.074C108.65 45.9513 108.351 46.6607 107.754 47.202C107.157 47.734 106.247 48 105.024 48H101.734ZM104.898 46.922C106.531 46.922 107.348 46.306 107.348 45.074C107.348 44.43 107.124 43.9773 106.676 43.716C106.228 43.4547 105.575 43.324 104.716 43.324H102.994V46.922H104.898Z" fill="#171717"/>
</svg>
