<svg width="23" height="23" viewBox="0 0 23 23" fill="none" xmlns="http://www.w3.org/2000/svg">
<path d="M14.8041 6.11957H8.0529C6.97474 6.11957 6.09863 7.00921 6.09863 8.10401V14.9584C6.09863 16.0532 6.9747 16.9441 8.0529 16.9441H14.8041C15.8811 16.9441 16.7584 16.0532 16.7584 14.9584V8.10401C16.7584 7.00916 15.8811 6.11957 14.8041 6.11957ZM11.4279 15.0948C9.49332 15.0948 7.91858 13.4957 7.91858 11.5312C7.91858 9.56681 9.49336 7.96776 11.4279 7.96776C13.3637 7.96776 14.9372 9.56681 14.9372 11.5312C14.9372 13.4957 13.3624 15.0948 11.4279 15.0948ZM15.0506 8.70458C14.5922 8.70458 14.2201 8.32688 14.2201 7.8614C14.2201 7.39703 14.5922 7.01809 15.0506 7.01809C15.5077 7.01809 15.8811 7.39703 15.8811 7.8614C15.8811 8.32688 15.5077 8.70458 15.0506 8.70458Z" fill="#B9B9B9"/>
<path d="M11.4281 9.47424C10.3117 9.47424 9.40234 10.3964 9.40234 11.5312C9.40234 12.6661 10.3117 13.5895 11.4281 13.5895C12.5457 13.5895 13.4551 12.6661 13.4551 11.5312C13.4551 10.3976 12.5457 9.47424 11.4281 9.47424Z" fill="#B9B9B9"/>
<path d="M11.4282 0C5.17351 0 0.103027 5.14878 0.103027 11.5C0.103027 17.8512 5.17351 23 11.4282 23C17.6828 23 22.7533 17.8512 22.7533 11.5C22.7533 5.14883 17.6828 0 11.4282 0ZM18.241 14.9584C18.241 16.884 16.6995 18.4493 14.8044 18.4493H8.05318C6.15807 18.4493 4.61537 16.8841 4.61537 14.9584V8.10405C4.61537 6.17982 6.15807 4.61329 8.05318 4.61329H14.8044C16.6995 4.61329 18.241 6.17982 18.241 8.10405V14.9584Z" fill="#B9B9B9"/>
</svg>
