<svg width="14" height="22" viewBox="0 0 14 22" fill="none" xmlns="http://www.w3.org/2000/svg">
<path d="M7.58819 18.5944L2.40245 10.8544C2.40245 10.8544 0.828208 8.06438 1.93944 5.18439C3.42108 1.40439 6.66216 1.22439 8.51421 1.67439C10.0885 2.03439 12.0331 3.29439 12.4961 6.26439C12.6813 7.52439 12.3109 9.50439 11.3849 11.3944C9.81065 14.3644 7.58819 18.5944 7.58819 18.5944Z" fill="#F5D210"/>
<path d="M7.64 20.2083L1.92106 11.4784C1.92106 11.4784 0.196304 8.23835 1.46718 5.08835C3.19194 0.858353 6.73223 0.678354 8.82009 1.21835C10.5449 1.66835 12.7235 3.10835 13.1774 6.43835C13.3589 7.87835 12.9958 10.0384 11.9065 12.1084C10.1817 15.4384 7.64 20.2083 7.64 20.2083Z" stroke="black" stroke-width="1.5" stroke-miterlimit="10"/>
</svg>
