<svg width="24" height="23" viewBox="0 0 24 23" fill="none" xmlns="http://www.w3.org/2000/svg">
<path d="M23.2093 11.5C23.2093 5.14873 18.1389 0 11.8842 0C5.62951 0 0.559082 5.14873 0.559082 11.5C0.559082 17.8513 5.62951 23 11.8842 23C18.1389 23 23.2093 17.8513 23.2093 11.5Z" fill="#B9B9B9"/>
<path d="M12.7874 17.9913V11.8355H14.8223L15.1275 9.43646H12.7874V7.90476C12.7874 7.21023 12.9774 6.73688 13.9583 6.73688H15.2094V4.5918C14.6038 4.52675 13.9952 4.49524 13.3863 4.49742C11.5825 4.49742 10.3477 5.61536 10.3477 7.66856V9.43646H8.30762V11.8355H10.3477V17.9913H12.7874Z" fill="#4F4F4F"/>
</svg>
