<svg width="46" height="46" viewBox="0 0 46 46" fill="none" xmlns="http://www.w3.org/2000/svg">
<path d="M37.0116 35.4436C36.1954 33.8567 30.973 32.4433 27.9295 31.7056C25.9789 31.2345 26.553 23.5168 26.553 23.5168H19.214C19.214 23.5168 19.7881 31.2283 17.8375 31.7056C14.7939 32.4433 9.57154 33.8505 8.75533 35.4436C8.0567 36.8012 8.34722 41.7727 8.34722 41.7727H37.4128C37.4128 41.7789 37.7033 36.8012 37.0116 35.4436Z" fill="url(#paint0_linear)"/>
<path d="M16.2597 15.5638C15.1184 15.7002 14.0808 16.5246 14.6619 18.3471C15.0976 19.7295 14.3506 21.1738 16.5986 21.242L16.2597 15.5638Z" fill="url(#paint1_linear)"/>
<path d="M29.4369 15.5576C30.5782 15.6691 31.6365 16.4688 31.1108 18.3099C30.7096 19.7047 31.4982 21.1304 29.257 21.2482L29.4369 15.5576Z" fill="url(#paint2_linear)"/>
<path d="M29.5544 15.0864C29.5613 14.9439 29.5682 14.7951 29.5682 14.6463C29.5613 10.6232 26.8913 8.27997 23.5711 8.27997C23.3359 8.27997 23.1076 8.29237 22.8794 8.31716C22.6511 8.29237 22.4229 8.27997 22.1877 8.27997C18.8675 8.27997 16.1906 10.6232 16.1906 14.6463C16.1906 14.7951 16.1975 14.9377 16.2044 15.0864C16.0661 17.7644 15.6441 21.9487 16.9929 23.5852C18.321 25.197 20.4377 26.9575 21.4406 26.9575H24.3181C25.3142 26.9575 27.4377 25.2032 28.7658 23.5852C30.1147 21.9487 29.6927 17.7644 29.5544 15.0864Z" fill="url(#paint3_linear)"/>
<path d="M28.7659 25.2401C27.4378 26.8518 25.3212 28.2342 24.3182 28.2342H21.4407C20.4446 28.2342 18.3211 26.858 16.993 25.2401C16.2667 24.3536 16.0523 22.7295 16.0384 21C16.0177 22.9341 16.1906 24.831 16.993 25.8104C18.3211 27.4221 20.4377 29.1826 21.4407 29.1826H24.3182C25.3143 29.1826 27.4378 27.4283 28.7659 25.8104C29.5683 24.831 29.7412 22.9403 29.7204 21C29.7066 22.7295 29.4922 24.3536 28.7659 25.2401Z" fill="url(#paint4_linear)"/>
<path d="M37.0112 35.4435C36.3057 34.0736 32.3214 32.8338 29.2848 32.0465C27.7769 33.838 25.4666 34.991 22.8796 34.991C20.2926 34.991 17.9823 33.8442 16.4744 32.0465C13.4378 32.8338 9.45354 34.0674 8.748 35.4435C8.04938 36.8011 8.33989 41.7727 8.33989 41.7727H37.4055C37.4124 41.7789 37.7029 36.8011 37.0112 35.4435Z" fill="white"/>
<path d="M37.0141 35.3623C36.4827 34.3594 34.0879 33.4286 31.6379 32.7079C30.8442 32.4737 30.0437 32.2575 29.3052 32.0714C28.27 33.2604 26.8621 34.1612 25.2471 34.6056L23.4389 37.6563L22.9489 41.4938H37.4144C37.4144 41.4998 37.7043 36.6775 37.0141 35.3623Z" fill="#A038E3"/>
<path d="M22.4304 37.8178L20.6389 34.6936C18.9788 34.241 17.5331 33.305 16.4748 32.0528C15.7554 32.2388 14.9807 32.4495 14.2129 32.6851C11.7366 33.4352 9.29486 34.4022 8.75533 35.4498C8.0567 36.8074 8.34722 41.779 8.34722 41.779H22.9215L22.4304 37.8178Z" fill="#A038E3"/>
<path d="M20.6384 34.6935L18.5909 31.1291V30.9803C18.8815 30.41 19.0544 29.5731 19.1581 28.6619H18.5909C18.5909 28.6619 17.5119 28.4387 16.4605 28.6619C15.2569 28.916 13.7075 30.0752 14.1433 32.437C14.1571 32.5176 14.1848 32.5982 14.2124 32.6788C14.8834 34.4393 19.2757 36.485 21.3509 37.3714C22.008 37.6504 22.4368 37.8177 22.4368 37.8177L20.6384 34.6935Z" fill="#A038E3"/>
<path d="M29.3818 28.6682C28.3304 28.445 27.2513 28.6682 27.2513 28.6682H26.6011C26.7118 29.66 26.9124 30.565 27.2513 31.1353L25.2246 34.6688L23.4123 37.8178C23.4123 37.8178 23.8412 37.6567 24.4983 37.3715C26.5665 36.4913 30.9243 34.458 31.6229 32.7037C31.6575 32.6169 31.6852 32.5301 31.699 32.4433C32.1348 30.0815 30.5853 28.9161 29.3818 28.6682Z" fill="#9509EF"/>
<path d="M27.8322 31.2779L27.0575 29.2818C27.2097 29.2694 28.1642 29.1392 28.3648 29.1392C28.6899 29.1392 28.9943 29.1702 29.2641 29.226C30.1356 29.4058 31.519 30.2736 31.1317 32.3503C31.1248 32.3937 31.104 32.4495 31.0833 32.5053C30.6613 33.5529 28.3095 35.0902 24.7541 36.6524L27.8322 31.2779Z" fill="#FFCD2C"/>
<path d="M17.9271 31.2779L18.7018 29.2756C18.5497 29.2632 17.5951 29.1331 17.3945 29.1331C17.0694 29.1331 16.765 29.1641 16.4953 29.2198C15.6237 29.3996 14.2403 30.2675 14.6277 32.3441C14.6346 32.3875 14.6553 32.4433 14.6761 32.4991C15.098 33.5467 17.4498 35.0841 21.0052 36.6462L17.9271 31.2779Z" fill="#FFDC1C"/>
<g opacity="0.2">
<path opacity="0.2" d="M31.0062 33.7789V30.3695L30.5497 33.7789H31.0062Z" fill="black"/>
</g>
<g opacity="0.2">
<path opacity="0.2" d="M10.753 33.7789V30.3695L11.2095 33.7789H10.753Z" fill="black"/>
</g>
<path d="M23.5158 28.0482H22.4229C22.167 28.0482 22.0632 27.8002 22.167 27.5523L22.4368 26.9262C22.4713 26.8394 22.5958 26.7774 22.7134 26.7774H23.2115C23.3291 26.7774 23.4536 26.8394 23.4881 26.9262L23.7579 27.5523C23.8755 27.794 23.7787 28.0482 23.5158 28.0482Z" fill="url(#paint5_linear)"/>
<rect x="9.04001" y="30.0989" width="22.08" height="6.44" fill="#A038E3"/>
<ellipse cx="20.4683" cy="16.1628" rx="0.8418" ry="0.5842" fill="#0E314D"/>
<ellipse cx="26.2031" cy="16.1628" rx="0.8418" ry="0.5842" fill="#0E314D"/>
<circle cx="23" cy="23" r="21" stroke="#FFDC1C" stroke-width="4"/>
<defs>
<linearGradient id="paint0_linear" x1="22.88" y1="29.9637" x2="22.88" y2="33.0012" gradientUnits="userSpaceOnUse">
<stop stop-color="#FEC797"/>
<stop offset="1" stop-color="#FFD9A9"/>
</linearGradient>
<linearGradient id="paint1_linear" x1="14.4548" y1="18.3461" x2="16.7046" y2="18.4345" gradientUnits="userSpaceOnUse">
<stop stop-color="#FEC797"/>
<stop offset="1" stop-color="#FFD9A9"/>
</linearGradient>
<linearGradient id="paint2_linear" x1="29.0643" y1="18.4159" x2="31.3099" y2="18.267" gradientUnits="userSpaceOnUse">
<stop stop-color="#FEC797"/>
<stop offset="1" stop-color="#FFD9A9"/>
</linearGradient>
<linearGradient id="paint3_linear" x1="22.8794" y1="13.1187" x2="22.8794" y2="25.6386" gradientUnits="userSpaceOnUse">
<stop stop-color="#FEC797"/>
<stop offset="1" stop-color="#FFD9A9"/>
</linearGradient>
<linearGradient id="paint4_linear" x1="16.0333" y1="25.0857" x2="29.7256" y2="25.0857" gradientUnits="userSpaceOnUse">
<stop stop-color="#665242"/>
<stop offset="1" stop-color="#2A1B00"/>
</linearGradient>
<linearGradient id="paint5_linear" x1="22.9717" y1="27.9593" x2="22.9717" y2="26.9538" gradientUnits="userSpaceOnUse">
<stop stop-color="#665242"/>
<stop offset="1" stop-color="#2A1B00"/>
</linearGradient>
</defs>
</svg>
