<svg width="22" height="22" viewBox="0 0 22 22" fill="none" xmlns="http://www.w3.org/2000/svg">
<path d="M21.6655 18.9444C21.6655 19.7548 21.3484 20.532 20.7841 21.105C20.2198 21.6781 19.4544 22 18.6564 22H3.00909C2.21103 22 1.44566 21.6781 0.881343 21.105C0.317028 20.532 0 19.7548 0 18.9444V3.05556C0 2.24517 0.317028 1.46798 0.881343 0.894952C1.44566 0.321924 2.21103 0 3.00909 0H18.6564C19.4544 0 20.2198 0.321924 20.7841 0.894952C21.3484 1.46798 21.6655 2.24517 21.6655 3.05556V18.9444Z" fill="#B9B9B9"/>
<path d="M15.5842 11.3869C15.1395 10.8949 14.5473 10.5729 13.8088 10.4127L13.3996 10.3504C13.8969 10.1426 14.3185 9.78322 14.6062 9.32192C14.8999 8.8538 15.0456 8.32642 15.0456 7.72692C15.0456 4.88892 11.3757 4.88892 10.4988 4.88892H6.62012V17.1111H11.4702C12.3019 17.1111 12.9813 17.0323 13.52 16.882C14.0604 16.7267 14.5654 16.4647 15.0059 16.1107C15.3884 15.8047 15.6977 15.4147 15.9104 14.9698C16.1367 14.509 16.2492 13.9743 16.2492 13.3681C16.2492 12.537 16.0259 11.8782 15.5842 11.3869ZM9.62921 7.33336H10.7245C10.7245 7.33336 12.0389 7.29486 12.0389 8.55558C12.0389 9.8163 10.7648 9.7778 10.7648 9.7778H9.62921V7.33336ZM11.4088 14.6667C11.1103 14.6789 10.5723 14.6716 9.7917 14.6716H9.62921V11.6111H11.4605C11.7777 11.6209 13.2401 11.5635 13.2401 13.1145C13.2401 14.6667 11.7073 14.6545 11.4088 14.6667Z" fill="#4F4F4F"/>
</svg>
